<svg xmlns="http://www.w3.org/2000/svg" width="52.602" height="150"><path fill="#fed232" d="M38.008 128.219a12 12 0 0 1-.2 6.355c-.464 1.1.514.368.514.368 6.109-6.347-1.567-13.788-1.918-13.847-.3-.05.447 2.712-1.316 6.568s.735 8.2 1.5 7.37c1.642-1.751 1.416-6.811 1.416-6.811Zm-6.894-16.124c-.267-.1-.067 2.582-2.382 5.837s-.639 7.73.226 7.1c1.826-1.333 2.386-6.071 2.386-6.071a11.3 11.3 0 0 1-1.312 5.837c-.627.94.409.43.409.43 6.773-4.784.99-13.023.677-13.136Zm-6.777 3.668c6.731-4.55 1.241-12.739.936-12.861-.259-.1-.117 2.536-2.457 5.674s-.773 7.421.084 6.823c1.818-1.266 2.448-5.762 2.448-5.762a11.1 11.1 0 0 1-1.408 5.691c-.635.907.393.435.393.435Zm-5.081-12.187c7.312-2.971 3.74-11.862 3.468-12.041-.226-.15-.618 2.39-3.472 4.905s-2.29 6.957-1.354 6.56c1.985-.84 3.547-5.043 3.547-5.043a10.7 10.7 0 0 1-2.478 5.131c-.786.735.284.489.284.489ZM15.838 92.42c-.823.694.263.506.263.506 7.462-2.578 4.37-11.645 4.116-11.837-.213-.159-.748 2.348-3.727 4.7s-2.666 6.823-1.709 6.48c2.022-.731 3.815-4.847 3.815-4.847a10.8 10.8 0 0 1-2.753 4.993Zm-2.954-10.424c-.844.606.213.5.213.5 7.4-1.947 5.072-10.939 4.838-11.139-.2-.167-.894 2.219-3.953 4.274s-3.071 6.4-2.123 6.142c2.01-.56 4.04-4.408 4.04-4.408a10.5 10.5 0 0 1-3.025 4.629Zm-1.742-12.953c-.915.455.125.526.125.526 7.479-.689 6.677-9.773 6.485-10.007-.167-.2-1.224 2-4.512 3.506s-4 5.7-3.046 5.6c2.035-.221 4.625-3.614 4.625-3.614a10.3 10.3 0 0 1-3.673 3.99Zm.43-10.579c-.911.439.121.518.121.518 7.391-.618 6.677-9.589 6.489-9.819-.159-.2-1.228 1.96-4.492 3.422s-4 5.6-3.054 5.5c2.014-.2 4.6-3.526 4.6-3.526a10.14 10.14 0 0 1-3.66 3.907Zm-1.057-10.893c1.985.046 4.893-2.9 4.893-2.9a10 10 0 0 1-4.024 3.38c-.94.318.05.514.05.514 7.27.267 7.629-8.549 7.471-8.8-.134-.209-1.421 1.772-4.767 2.8s-4.558 4.98-3.623 5Zm3.393-12.142c-.982.15-.038.518-.038.518 7.107 1.55 9.021-7.07 8.912-7.341-.1-.226-1.713 1.487-5.194 1.914s-5.365 4.095-4.446 4.278c1.943.4 5.323-1.98 5.323-1.98a9.87 9.87 0 0 1-4.558 2.607Zm4.04-11.152c1.663.338 4.558-1.7 4.558-1.7a8.5 8.5 0 0 1-3.9 2.235c-.836.125-.029.443-.029.443 6.083 1.329 7.721-6.046 7.625-6.284-.079-.2-1.467 1.274-4.446 1.638s-4.594 3.514-3.808 3.669Zm4.776-8.423c-.9.1-.05.468-.05.468 6.434 1.663 8.478-6.142 8.386-6.393-.079-.213-1.613 1.3-4.8 1.567s-5.043 3.551-4.212 3.756c1.763.426 4.93-1.625 4.93-1.625a9.1 9.1 0 0 1-4.249 2.227ZM34.996.094c-.2-.159-7.742-.777-8.273 5.44 0 0 .067.869.435.1a8.5 8.5 0 0 1 3.3-3.071s-2.808 2.168-2.979 3.861c-.079.8 3.409.18 4.638-2.565S35.162.232 34.996.094m-8.541 129.429c-4.065 1.208-6.7.084-6.689.384.008.355 6.3 9 13.441 3.844 0 0 .869-.865-.292-.56a11.97 11.97 0 0 1-6.319-.686s4.98.923 6.948-.447c.928-.652-3.021-3.735-7.086-2.528Zm-.731-6.071s.831-.8-.267-.531a11.3 11.3 0 0 1-5.937-.756s4.646 1.091 6.518-.175c.886-.589-2.753-3.7-6.6-2.624s-6.3-.038-6.3.251c0 .334 5.778 8.574 12.585 3.84Zm-6.3-10.458s.932-.635-.171-.556a11.1 11.1 0 0 1-5.616-1.7s4.191 1.751 6.2.836c.953-.435-1.935-3.965-5.829-3.556s-6.088-1.057-6.134-.786c-.05.326 4.195 9.221 11.54 5.758Zm-4.813-12.113s.986-.489-.088-.56a10.75 10.75 0 0 1-5.173-2.382s3.882 2.248 5.946 1.634c.974-.288-1.416-4.082-5.219-4.207s-5.716-1.83-5.8-1.575c-.1.305 2.8 9.443 10.333 7.09Zm-3.557-11.206s1.015-.409-.05-.568a10.8 10.8 0 0 1-4.968-2.8s3.689 2.553 5.8 2.11c.994-.209-1.082-4.178-4.859-4.613s-5.553-2.29-5.649-2.035c-.121.292 2.026 9.631 9.731 7.9ZM9.111 77.98s1-.355-.021-.543a10.4 10.4 0 0 1-4.7-2.908s3.472 2.628 5.527 2.276c.974-.163-.882-4.09-4.521-4.659s-5.285-2.436-5.39-2.2c-.13.284 1.575 9.414 9.1 8.035Zm-1-12.046s1.015-.247.038-.539a10.2 10.2 0 0 1-4.291-3.318s3.125 2.912 5.168 2.783c.961-.058-.447-4.082-3.944-5.005S.174 56.935.04 57.16c-.15.263.589 9.351 8.076 8.77Zm-.07-11.185s1.032.058.188-.493a10.14 10.14 0 0 1-3.121-4.351s2.131 3.639 4.1 4.095c.932.217.735-3.99-2.315-5.854s-3.824-4.151-4.008-3.976c-.217.201-2.089 9.013 5.156 10.579m1.255-12.144s.994.175.238-.46a9.87 9.87 0 0 1-2.519-4.609s1.638 3.8 3.5 4.475c.882.322 1.191-3.794-1.554-5.975s-3.221-4.5-3.426-4.35c-.239.179-3.109 8.527 3.756 10.919Zm2.82-10.893s.953.338.313-.414a9.9 9.9 0 0 1-1.721-4.964s.99 4.019 2.712 5c.815.46 1.8-3.547-.539-6.155s-2.432-4.964-2.657-4.851c-.263.134-4.479 7.888 1.893 11.386Zm4.584-10.7s.823.272.259-.355a8.54 8.54 0 0 1-1.6-4.207s.948 3.414 2.448 4.207c.706.376 1.45-3.075-.623-5.252s-2.206-4.187-2.4-4.082c-.22.119-3.63 6.859 1.912 9.687Zm5.1-9.7s.8.46.347-.322a9.03 9.03 0 0 1-.765-4.738s.255 3.765 1.65 4.922c.66.543 2.181-2.908.485-5.624S22.109.692 21.888.763c-.255.075-5.273 6.384-.092 10.542Zm29.296 134.665a48.8 48.8 0 0 1-14.5-10.947c3.618 8.686 16.006 14.975 16.006 14.975Z"/></svg>