<svg xmlns="http://www.w3.org/2000/svg" width="163.372" height="17.798"><path fill="#005bac" d="m8.954 17.622-5.192-6.82v6.82H0V2.178h3.762v6.776L8.91 2.178h4.426L7.348 9.746l6.204 7.876ZM17.226 4.07a2.28 2.28 0 0 1-1.617-.583 1.89 1.89 0 0 1-.627-1.441 1.91 1.91 0 0 1 .627-1.463A2.28 2.28 0 0 1 17.226 0a2.25 2.25 0 0 1 1.595.583 1.91 1.91 0 0 1 .627 1.463 1.89 1.89 0 0 1-.627 1.441 2.25 2.25 0 0 1-1.595.583m1.87 1.276v12.276h-3.76V5.346Zm6.49 2.046a4.96 4.96 0 0 1 1.65-1.6 4.26 4.26 0 0 1 2.2-.583v3.982h-1.034a3.17 3.17 0 0 0-2.112.605 2.69 2.69 0 0 0-.7 2.123v5.703h-3.766V5.346h3.762Zm4.906 4.07a7.34 7.34 0 0 1 .715-3.322 5.33 5.33 0 0 1 1.947-2.2 5.1 5.1 0 0 1 2.75-.77 4.7 4.7 0 0 1 2.277.528 3.9 3.9 0 0 1 1.507 1.386V5.346h3.762v12.276h-3.762v-1.738a4.06 4.06 0 0 1-1.529 1.386 4.7 4.7 0 0 1-2.277.528 5 5 0 0 1-2.728-.781 5.4 5.4 0 0 1-1.947-2.222 7.4 7.4 0 0 1-.715-3.333m9.2.022a3.08 3.08 0 0 0-.781-2.222 2.54 2.54 0 0 0-1.9-.814 2.55 2.55 0 0 0-1.9.8 3.04 3.04 0 0 0-.781 2.211 3.12 3.12 0 0 0 .781 2.233 2.52 2.52 0 0 0 1.9.825 2.54 2.54 0 0 0 1.9-.814 3.08 3.08 0 0 0 .777-2.219Zm15.944-3.146v3.124h-9.68V8.338Zm12.256 9.284-5.192-6.82v6.82h-3.764V2.178h3.762v6.776l5.148-6.776h4.422l-5.982 7.568 6.204 7.876ZM76.164 4.07a2.28 2.28 0 0 1-1.617-.583 1.89 1.89 0 0 1-.627-1.441 1.91 1.91 0 0 1 .627-1.463A2.28 2.28 0 0 1 76.164 0a2.25 2.25 0 0 1 1.6.583 1.91 1.91 0 0 1 .627 1.463 1.89 1.89 0 0 1-.627 1.441 2.25 2.25 0 0 1-1.6.583m1.87 1.276v12.276h-3.762V5.346Zm6.49 2.046a4.96 4.96 0 0 1 1.65-1.6 4.26 4.26 0 0 1 2.2-.583v3.982h-1.038a3.17 3.17 0 0 0-2.112.605 2.69 2.69 0 0 0-.7 2.123v5.703h-3.762V5.346h3.762Zm4.906 4.07a7.34 7.34 0 0 1 .715-3.322 5.33 5.33 0 0 1 1.947-2.2 5.1 5.1 0 0 1 2.75-.77 4.7 4.7 0 0 1 2.277.528 3.9 3.9 0 0 1 1.507 1.386V5.346h3.762v12.276h-3.762v-1.738a4.06 4.06 0 0 1-1.529 1.386 4.7 4.7 0 0 1-2.277.528 5 5 0 0 1-2.728-.781 5.4 5.4 0 0 1-1.947-2.222 7.4 7.4 0 0 1-.715-3.333m9.2.022a3.08 3.08 0 0 0-.781-2.222 2.54 2.54 0 0 0-1.9-.814 2.55 2.55 0 0 0-1.9.8 3.04 3.04 0 0 0-.781 2.211 3.12 3.12 0 0 0 .768 2.236 2.52 2.52 0 0 0 1.9.825 2.54 2.54 0 0 0 1.9-.814 3.08 3.08 0 0 0 .79-2.222Zm21.164-9.306v10.516a4.97 4.97 0 0 1-1.375 3.762 5.13 5.13 0 0 1-3.707 1.32 5.48 5.48 0 0 1-3.916-1.386 5.14 5.14 0 0 1-1.474-3.938h3.74a2.3 2.3 0 0 0 .4 1.463 1.38 1.38 0 0 0 1.144.495 1.31 1.31 0 0 0 1.056-.44 1.92 1.92 0 0 0 .374-1.276V2.178Zm15.158 3.168v12.276h-3.766V15.95a4.1 4.1 0 0 1-1.55 1.309 4.7 4.7 0 0 1-2.167.5 4.85 4.85 0 0 1-2.487-.637 4.23 4.23 0 0 1-1.672-1.815 6.2 6.2 0 0 1-.594-2.785V5.35h3.74v6.662a2.7 2.7 0 0 0 .638 1.914 2.24 2.24 0 0 0 1.716.682 2.27 2.27 0 0 0 1.738-.682 2.7 2.7 0 0 0 .638-1.914V5.346Zm10.204 12.276-3.74-5.148v5.148h-3.762V1.342h3.762v9l3.718-4.994h4.642l-5.1 6.16 5.144 6.114Zm18.216-12.276v12.276h-3.762V15.95a4.1 4.1 0 0 1-1.551 1.309 4.7 4.7 0 0 1-2.167.5 4.85 4.85 0 0 1-2.486-.637 4.23 4.23 0 0 1-1.67-1.81 6.2 6.2 0 0 1-.6-2.79V5.35h3.74v6.662a2.7 2.7 0 0 0 .638 1.914 2.24 2.24 0 0 0 1.716.682 2.27 2.27 0 0 0 1.738-.682 2.7 2.7 0 0 0 .638-1.914V5.346Z" data-name="kira-kira Juku"/></svg>